<svg width="1080" height="1080" viewBox="0 0 1080 1080" fill="none" xmlns="http://www.w3.org/2000/svg">
<g clip-path="url(#clip0_2403_7)">
<rect width="1080" height="1080" fill="white"/>
<path d="M678.24 261.9V563.22C702.36 537.66 728.46 518.76 756.54 506.52C784.98 493.92 815.04 487.62 846.72 487.62C897.84 487.62 936.9 502.56 963.9 532.44C990.9 562.32 1004.4 604.44 1004.4 658.8V1080H833.76V706.32C833.76 671.76 829.8 647.64 821.88 633.96C814.32 620.28 799.92 613.44 778.68 613.44C766.8 613.44 755.1 616.32 743.58 622.08C732.42 627.48 721.44 635.4 710.64 645.84C699.84 656.28 689.04 668.7 678.24 683.1V1080H507.6V278.64L678.24 261.9Z" fill="black"/>
</g>
<defs>
<clipPath id="clip0_2403_7">
<rect width="1080" height="1080" fill="white"/>
</clipPath>
</defs>
</svg>
